<svg xmlns="http://www.w3.org/2000/svg" xmlns:xlink="http://www.w3.org/1999/xlink" viewBox="0 0 404.8 63.6"><defs><style>.cls-1{fill:none;}.cls-2{clip-path:url(#clip-path);}.cls-3{fill:#3c506e;}</style><clipPath id="clip-path"><rect class="cls-1" width="404.8" height="63.6"/></clipPath></defs><g id="Ebene_2" data-name="Ebene 2"><g id="Ebene_1-2" data-name="Ebene 1"><g class="cls-2"><path class="cls-3" d="M367.21,63.09h19.4V60.48H371.19l15.42-21.63V36.56H368.22v2.65h14.52L367.21,60.87Zm-25,0h3V41.54h.07l14.45,21.55h2.84V36.56h-3v21h-.07l-14-21h-3.34Zm-21.84,0h17V60.23H323.5V50.58h9.75V47.75H323.5V39.46h13.12v-2.9H320.34Zm-16,0h3.16V39.46h8.46v-2.9h-20v2.9h8.42Zm-28.15,0h17V60.23H279.32V50.58h9.75V47.75h-9.75V39.46h13.12v-2.9H276.16Zm-20.11-14V39.43h5.77c4.3,0,6.53,1.36,6.53,4.77,0,3.58-2.26,4.87-6.5,4.87Zm-3.16,14h3.16V51.87h5.63c5.55,0,9.79-2.12,9.79-7.78,0-5.27-3.84-7.53-9.58-7.53h-9Zm-31.49,0h2.91V41.51h.07a49.26,49.26,0,0,0,1.65,5l6.35,16.6h2.83l6.35-16.6c.61-1.76,1.25-3.48,1.61-4.88h.07V63.09h3.12V36.56h-4.19L234,59.11h-.08l-8.35-22.55H221.4Zm-16.67-2.33c-4.88,0-8.29-4-8.29-10.93s3.41-10.91,8.29-10.91,8.25,4,8.25,10.91-3.45,10.93-8.25,10.93m0,2.84c6.56,0,11.4-5.24,11.4-13.77s-4.84-13.77-11.4-13.77-11.48,5.23-11.48,13.77,4.92,13.77,11.48,13.77m-34.5-.51h3.16v-9L178,49.07l8.82,14h3.63L180.09,46.67l9.11-10.11h-3.8l-12,13.7V36.56h-3.16Zm-30.23,0h17V60.23H143.16V50.58h9.75V47.75h-9.75V39.46h13.12v-2.9H140Zm-20.4,0h15.92V60.23H122.75V36.56H119.6ZM99.73,52.73,104,40.29h.07l4.24,12.44ZM93.09,63.09h3l2.62-7.6H109.3l2.62,7.6h3.26l-9.39-26.64h-3.3Zm-13.91,0h3.16V39.46H90.8v-2.9h-20v2.9h8.43Zm-16.35,0H66V36.56H62.83Zm-16.75.51a7.89,7.89,0,0,0,7.5-4.49h.07v4h2.76V50.4H47.26v2.65h6.1c-.07,4.92-2.87,7.71-7,7.71-4.7,0-8.18-3.73-8.18-11.15S42.1,39,46.26,39C50,39,51.93,40.75,53.18,45l2.94-.75c-1.4-5.56-4.8-8.21-9.82-8.21-6.64,0-11.3,5.23-11.3,13.66,0,8,3.91,13.88,11.08,13.88m-19.83-.51h3.16V36.56H26.25ZM3.41,60.26V39.46H7.57c6.45,0,9.89,3.16,9.89,10.29,0,7.39-3.4,10.51-9.82,10.51ZM.25,63.09h7c8.43,0,13.38-4.34,13.38-13.34S15.78,36.56,7.24,36.56h-7Z"/><path class="cls-3" d="M379.08,27h5.06l4.48-18.47h.07L392.89,27h5L404.8.5h-5.38l-2.69,12.27c-.5,2.15-.83,3.22-1.19,5.63h-.07c-.36-2.37-.75-3.59-1.25-5.7L391.35.5H386l-2.69,12.12a56.27,56.27,0,0,0-1.22,5.78H382a56.67,56.67,0,0,0-1.29-5.81L377.9.5H372ZM354.45,12.52V5.27h4c3.37,0,5,1,5,3.59s-1.61,3.66-5,3.66ZM348.71,27h5.74V17h3.37l5.52,10h6.17l-5.92-10.76c3.55-1.08,5.52-3.37,5.52-7.57,0-5.88-3.9-8.21-10.43-8.21h-10Zm-27.86,0h5.38V10h.07L337.88,27h5.38V.5h-5.38V17.43h-.07L326.69.5h-5.84Zm-26.58.5a7.3,7.3,0,0,0,6.92-4.16h.08V27H306V13.73H295.78v4.34h4.63A5.35,5.35,0,0,1,295,22.84c-2.83,0-6.41-1.86-6.41-9.28s4-8.72,6.16-8.72c2.62,0,4.31,1.44,5.42,5.13l5.34-1.47C303.78,2,299.76,0,294.74,0c-7.46,0-12.09,5.34-12.09,13.66,0,8,3.59,13.88,11.62,13.88M256.05,27h5.37V10h.08L273.08,27h5.38V.5h-5.38V17.43H273L261.89.5h-5.84Zm-15.71.43c7.39,0,10.69-4.09,10.69-10.62V.5h-5.74V16.75c0,3.87-1.44,6-4.88,6s-4.95-2.16-4.95-6V.5h-5.84V16.89c0,6.49,3.33,10.58,10.72,10.58m-31-5.16V5.38H212c5.81,0,8,2.65,8,8.32,0,6-2.19,8.61-8,8.61ZM203.51,27h8.14c8,0,14.2-3.44,14.2-13.41,0-9.69-6.1-13.13-14.2-13.13h-8.14Zm-21,0H200V22.31H188.34V.5h-5.85ZM171,27h5.81V.5H171Zm-20.12-4.45v-7h4.45c3.23,0,4.91,1.15,4.91,3.48s-1.43,3.55-4.66,3.55Zm0-11.15V5h4.38c3.12,0,4.37,1.15,4.37,3.23s-1.4,3.19-4.45,3.19ZM145.09,27h11.16c4.94,0,9.64-2,9.64-7.32,0-4.23-2.54-5.91-5.77-6.49v-.07a5.81,5.81,0,0,0,5-6.09c0-5.38-4.59-6.57-9.46-6.57H145.09Zm-17.28,0h5.84V5.38h7.93V.5H119.92V5.38h7.89Zm-25.5-14.52V5.27h4c3.37,0,5,1,5,3.59s-1.62,3.66-5,3.66ZM96.57,27h5.74V17h3.37l5.52,10h6.17l-5.91-10.76C115,15.2,117,12.91,117,8.71,117,2.83,113.07.5,106.54.5h-10Zm-16.71-4.2c-4.12,0-6.67-3.51-6.67-9.07s2.55-8.93,6.67-8.93,6.67,3.37,6.67,8.93S84,22.84,79.86,22.84m0,4.7c6.39,0,12.48-4.45,12.48-13.77S86.25,0,79.86,0,67.35,4.45,67.35,13.77s6.09,13.77,12.51,13.77M47.59,27h5.84V16.46h8.32V11.83H53.43V5.38H65.12V.5H47.59ZM33.74,17.72h9.44V13.84H33.74ZM17.5,27h5.84V5.38h7.93V.5H9.61V5.38H17.5ZM0,27H5.81V.5H0Z"/></g></g></g></svg>